<svg width="925" height="1044" viewBox="0 0 925 1044" fill="none" xmlns="http://www.w3.org/2000/svg">
<path d="M4 880.5V159.5L187 5.5V880.5H4Z" fill="black"/>
<path d="M186.099 289.838V880.974H4V161.075M186.099 289.838L462.5 482.981L737.6 292.439M186.099 289.838L186.75 5M737.6 292.439V641.008M737.6 292.439L921 163.677M737.6 641.008L432.584 879.673L614.683 1039L921 800.335M737.6 641.008L921 800.335M921 800.335V163.677M921 163.677L736.95 5L461.85 194.242L186.75 5M186.75 5L4 6.30063V161.075M186.75 5L4 161.075" stroke="black" stroke-width="7"/>
</svg>
